# xmcd CD database file
#
# Track frame offsets:
#	150
#	43899
#	95092
#	109983
#	182744
#
# Disc length: 3290 seconds
#
# Revision: 0
# Processed by: cddbd v1.5.2PL0 Copyright (c) Steve Scherf et al.
# Submitted via: CDex 1.51
#
DISCID=440cd805
DTITLE=Malfatti - Wittwer - UND? ...PLUS
DYEAR=1977
DGENRE=Jazz
TTITLE0=Und?
TTITLE1=So
TTITLE2=`Tis a Point
TTITLE3=Cotpotok (still valid)
TTITLE4=Untitled?
EXTD=YEAR: 1977
EXTT0=
EXTT1=
EXTT2=
EXTT3=
EXTT4=
PLAYORDER=
